<svg width="1920" height="1080" viewBox="0 0 1920 1080" fill="none" xmlns="http://www.w3.org/2000/svg">
<rect width="1920" height="1080" fill="#080D1E"/>
<g clip-path="url(#clip0_292_106)">
<path d="M788.983 447.297H844.906C858.385 447.297 869.788 449.396 879.116 453.594C887.703 457.197 894.995 463.313 900.031 471.135C904.744 478.862 907.16 487.768 906.996 496.813C907.099 505.9 904.59 514.825 899.764 522.532C894.382 530.673 886.685 537.023 877.661 540.768C867.774 545.266 855.517 547.508 840.891 547.494H788.983V447.297ZM840.318 522C849.399 522 856.378 519.738 861.253 515.213C863.725 512.82 865.656 509.928 866.918 506.73C868.179 503.532 868.741 500.102 868.566 496.67C868.718 493.484 868.219 490.3 867.099 487.313C865.979 484.325 864.262 481.596 862.052 479.292C857.682 474.958 851.106 472.784 842.325 472.771H824.831V522H840.318Z" fill="white"/>
<path d="M990.737 547.33C983.36 545.485 976.302 542.543 969.802 538.601V514.845C975.477 518.964 981.866 522 988.648 523.799C996.067 526.058 1003.77 527.236 1011.53 527.295C1014.21 527.438 1016.88 526.977 1019.35 525.946C1021.12 525.046 1022 523.901 1022 522.716C1022.02 522.053 1021.9 521.394 1021.65 520.778C1021.41 520.163 1021.03 519.605 1020.56 519.138C1018.93 517.882 1017.01 517.047 1014.97 516.705L997.764 512.841C987.904 510.551 980.905 507.383 976.767 503.335C974.69 501.244 973.071 498.744 972.013 495.996C970.955 493.247 970.481 490.309 970.621 487.368C970.552 482.037 972.498 476.877 976.07 472.914C980.306 468.442 985.647 465.163 991.557 463.407C999.161 461.022 1007.1 459.882 1015.07 460.034C1022.51 459.964 1029.93 460.83 1037.16 462.61C1042.99 463.989 1048.59 466.207 1053.79 469.193V491.681C1048.92 488.86 1043.68 486.72 1038.22 485.323C1032.31 483.741 1026.21 482.944 1020.09 482.952C1011.11 482.952 1006.61 484.478 1006.61 487.531C1006.6 488.211 1006.78 488.88 1007.15 489.455C1007.51 490.029 1008.04 490.484 1008.66 490.761C1011.12 491.803 1013.69 492.545 1016.32 492.969L1030.66 495.545C1039.98 497.181 1046.92 500.043 1051.5 504.132C1056.07 508.221 1058.36 514.204 1058.38 522.082C1058.45 526.224 1057.44 530.314 1055.43 533.943C1053.43 537.573 1050.51 540.617 1046.97 542.771C1039.42 547.828 1028.63 550.349 1014.62 550.336C1006.57 550.348 998.539 549.338 990.737 547.33Z" fill="white"/>
<path d="M1092.26 544.325C1084.59 540.81 1078.13 535.122 1073.68 527.97C1069.53 520.956 1067.4 512.932 1067.53 504.786C1067.41 496.645 1069.65 488.643 1073.99 481.746C1078.61 474.706 1085.19 469.164 1092.92 465.799C1102.31 461.712 1112.49 459.731 1122.74 459.993C1137.08 459.993 1148.98 462.998 1158.45 469.009V495.239C1154.85 492.823 1150.91 490.943 1146.77 489.657C1142.13 488.196 1137.29 487.472 1132.43 487.511C1123.54 487.511 1116.58 489.133 1111.56 492.377C1109.3 493.635 1107.41 495.468 1106.09 497.689C1104.78 499.911 1104.07 502.441 1104.05 505.023C1104.03 507.605 1104.69 510.147 1105.98 512.389C1107.26 514.631 1109.11 516.494 1111.35 517.789C1116.23 521.073 1123.3 522.716 1132.57 522.716C1137.36 522.727 1142.12 522.038 1146.71 520.671C1150.89 519.474 1154.91 517.764 1158.67 515.581V540.931C1147.59 547.381 1134.93 550.65 1122.11 550.377C1111.83 550.657 1101.62 548.587 1092.26 544.325Z" fill="white"/>
<path d="M1194.15 544.325C1186.4 540.792 1179.82 535.117 1175.2 527.97C1170.85 520.973 1168.59 512.879 1168.69 504.643C1168.55 496.504 1170.82 488.505 1175.2 481.643C1179.85 474.678 1186.39 469.187 1194.07 465.82C1212.92 458.187 1234.01 458.187 1252.86 465.82C1260.5 469.161 1267.03 474.626 1271.65 481.562C1276 488.449 1278.25 496.458 1278.1 504.602C1278.2 512.83 1275.96 520.918 1271.65 527.929C1267.08 535.081 1260.53 540.761 1252.8 544.284C1243.53 548.25 1233.56 550.295 1223.48 550.295C1213.39 550.295 1203.42 548.25 1194.15 544.284V544.325ZM1237.72 518.934C1239.49 517.108 1240.87 514.941 1241.78 512.564C1242.68 510.188 1243.08 507.652 1242.97 505.113C1243.09 502.598 1242.69 500.085 1241.79 497.734C1240.88 495.383 1239.5 493.245 1237.72 491.457C1235.8 489.693 1233.53 488.334 1231.07 487.459C1228.61 486.585 1225.99 486.213 1223.38 486.366C1220.77 486.229 1218.16 486.608 1215.7 487.482C1213.24 488.356 1210.98 489.706 1209.04 491.457C1207.27 493.249 1205.9 495.388 1205 497.738C1204.1 500.089 1203.7 502.6 1203.82 505.113C1203.71 507.65 1204.11 510.184 1205.01 512.56C1205.91 514.936 1207.28 517.104 1209.04 518.934C1210.96 520.719 1213.22 522.101 1215.68 522.997C1218.15 523.892 1220.76 524.283 1223.38 524.147C1226 524.299 1228.63 523.915 1231.09 523.018C1233.56 522.122 1235.81 520.732 1237.72 518.934Z" fill="white"/>
<path d="M1364.28 465.288V496.24C1360 493.691 1355.06 492.447 1350.08 492.663C1342.44 492.663 1336.54 494.993 1332.44 499.614C1328.35 504.234 1326.3 511.41 1326.3 521.141V547.474H1291.17V463.755H1325.58V490.332C1327.49 480.601 1330.58 473.425 1334.84 468.804C1336.91 466.532 1339.44 464.734 1342.27 463.534C1345.1 462.334 1348.16 461.761 1351.23 461.853C1355.82 461.728 1360.35 462.921 1364.28 465.288Z" fill="white"/>
<path d="M1481 444.435V547.474H1445.87V528.665C1443.22 535.361 1438.46 541.015 1432.31 544.775C1425.52 548.637 1417.79 550.56 1409.98 550.336C1402.63 550.507 1395.39 548.493 1389.19 544.55C1383.18 540.656 1378.39 535.15 1375.38 528.665C1372.09 521.507 1370.45 513.703 1370.59 505.829C1370.36 497.665 1372.1 489.565 1375.67 482.216C1378.95 475.484 1384.07 469.815 1390.44 465.861C1396.98 461.902 1404.52 459.868 1412.17 459.993C1428.89 459.993 1440.12 467.244 1445.87 481.746V444.435H1481ZM1440.71 518.443C1442.5 516.684 1443.9 514.572 1444.83 512.242C1445.76 509.912 1446.19 507.415 1446.09 504.909C1446.17 502.478 1445.73 500.059 1444.8 497.811C1443.87 495.563 1442.48 493.537 1440.71 491.866C1436.69 488.6 1431.66 486.817 1426.48 486.817C1421.3 486.817 1416.27 488.6 1412.25 491.866C1410.49 493.575 1409.1 495.636 1408.19 497.915C1407.27 500.194 1406.85 502.64 1406.95 505.093C1406.86 507.569 1407.29 510.036 1408.21 512.336C1409.14 514.635 1410.53 516.716 1412.31 518.443C1414.2 520.189 1416.41 521.542 1418.82 522.423C1421.24 523.305 1423.8 523.696 1426.37 523.574C1428.98 523.718 1431.59 523.339 1434.06 522.457C1436.52 521.576 1438.78 520.211 1440.71 518.443Z" fill="white"/>
<path d="M659.621 422.498C642.51 414.68 624.445 409.133 605.889 406C603.35 410.53 601.053 415.191 599.007 419.963C579.241 416.991 559.141 416.991 539.375 419.963C537.328 415.192 535.031 410.531 532.492 406C513.925 409.16 495.848 414.72 478.72 422.539C444.715 472.75 435.497 521.714 440.106 569.983C460.02 584.667 482.31 595.834 506.006 603C511.341 595.838 516.063 588.24 520.12 580.287C512.414 577.414 504.977 573.871 497.894 569.696C499.758 568.347 501.581 566.957 503.343 565.608C523.952 575.281 546.447 580.296 569.222 580.296C591.997 580.296 614.491 575.281 635.101 565.608C636.883 567.059 638.706 568.449 640.55 569.696C633.453 573.877 626.002 577.428 618.283 580.307C622.335 588.257 627.056 595.848 632.397 603C656.113 595.863 678.42 584.701 698.337 570.003C703.745 514.027 689.099 465.513 659.621 422.498ZM525.958 540.298C513.114 540.298 502.503 528.665 502.503 514.354C502.503 500.043 512.745 488.308 525.917 488.308C539.089 488.308 549.618 500.043 549.392 514.354C549.167 528.665 539.048 540.298 525.958 540.298ZM612.486 540.298C599.621 540.298 589.051 528.665 589.051 514.354C589.051 500.043 599.293 488.308 612.486 488.308C625.678 488.308 636.125 500.043 635.9 514.354C635.674 528.665 625.575 540.298 612.486 540.298Z" fill="white"/>
<path d="M936.617 472.668C946.29 472.668 954.131 465.639 954.131 456.967C954.131 448.296 946.29 441.266 936.617 441.266C926.944 441.266 919.102 448.296 919.102 456.967C919.102 465.639 926.944 472.668 936.617 472.668Z" fill="white"/>
<path d="M919.082 483.483C924.63 485.811 930.588 487.009 936.606 487.009C942.625 487.009 948.583 485.811 954.131 483.483V547.923H919.082V483.483Z" fill="white"/>
</g>
<defs>
<clipPath id="clip0_292_106">
<rect width="1042" height="197" fill="white" transform="translate(439 406)"/>
</clipPath>
</defs>
</svg>
