<svg width="1920" height="1080" viewBox="0 0 1920 1080" fill="none" xmlns="http://www.w3.org/2000/svg">
<rect width="1920" height="1080" fill="#080D1E"/>
<path d="M657.851 459.131C636.527 437.756 608.129 426 577.949 426C515.656 426 464.967 476.689 464.967 538.982C464.967 558.881 470.158 578.322 480.031 595.473L464 654L523.901 638.274C540.39 647.282 558.966 652.015 577.898 652.015H577.949C640.191 652.015 692 601.326 692 539.033C692 508.854 679.175 480.506 657.851 459.131ZM577.949 632.981C561.053 632.981 544.513 628.452 530.11 619.902L526.7 617.866L491.177 627.179L500.643 592.521L498.404 588.959C488.988 573.996 484.052 556.744 484.052 538.982C484.052 487.224 526.191 445.085 578 445.085C603.09 445.085 626.654 454.856 644.364 472.618C662.075 490.379 672.966 513.943 672.915 539.033C672.915 590.842 629.707 632.981 577.949 632.981ZM629.453 562.647C626.654 561.222 612.76 554.403 610.164 553.487C607.569 552.52 605.686 552.062 603.803 554.912C601.92 557.762 596.525 564.072 594.846 566.006C593.217 567.889 591.538 568.144 588.738 566.719C572.147 558.423 561.256 551.909 550.314 533.129C547.413 528.142 553.215 528.498 558.61 517.709C559.526 515.826 559.068 514.197 558.355 512.772C557.643 511.347 551.994 497.454 549.653 491.804C547.363 486.308 545.021 487.071 543.291 486.97C541.663 486.868 539.779 486.868 537.896 486.868C536.013 486.868 532.96 487.58 530.364 490.379C527.769 493.229 520.491 500.049 520.491 513.943C520.491 527.837 530.619 541.272 531.993 543.155C533.418 545.038 551.892 573.538 580.239 585.804C598.154 593.539 605.177 594.201 614.134 592.878C619.579 592.063 630.827 586.058 633.168 579.442C635.509 572.826 635.509 567.177 634.796 566.006C634.135 564.734 632.252 564.021 629.453 562.647Z" fill="#25D366"/>
<path d="M763.542 591L734.616 489.909H757.964L774.697 560.15H775.536L793.997 489.909H813.988L832.4 560.298H833.288L850.022 489.909H873.369L844.444 591H823.614L804.363 524.906H803.573L784.372 591H763.542ZM905.441 547.168V591H884.414V489.909H904.849V528.559H905.738C907.449 524.083 910.213 520.579 914.03 518.045C917.848 515.478 922.636 514.195 928.394 514.195C933.659 514.195 938.25 515.346 942.166 517.65C946.115 519.92 949.175 523.195 951.347 527.473C953.552 531.718 954.638 536.802 954.605 542.725V591H933.577V546.477C933.61 541.804 932.425 538.167 930.023 535.568C927.654 532.968 924.33 531.668 920.052 531.668C917.189 531.668 914.656 532.277 912.451 533.495C910.279 534.712 908.568 536.489 907.317 538.826C906.1 541.129 905.474 543.91 905.441 547.168ZM992.773 592.431C987.936 592.431 983.625 591.592 979.841 589.914C976.056 588.203 973.062 585.685 970.857 582.362C968.685 579.005 967.599 574.826 967.599 569.824C967.599 565.612 968.372 562.075 969.919 559.212C971.466 556.349 973.572 554.045 976.237 552.301C978.903 550.557 981.93 549.241 985.32 548.352C988.742 547.464 992.329 546.839 996.08 546.477C1000.49 546.016 1004.04 545.588 1006.74 545.193C1009.44 544.765 1011.4 544.14 1012.62 543.317C1013.83 542.495 1014.44 541.277 1014.44 539.665V539.369C1014.44 536.242 1013.46 533.824 1011.48 532.113C1009.54 530.401 1006.78 529.546 1003.19 529.546C999.404 529.546 996.393 530.385 994.155 532.063C991.917 533.709 990.437 535.782 989.713 538.283L970.265 536.703C971.252 532.096 973.193 528.114 976.089 524.758C978.985 521.368 982.72 518.769 987.294 516.959C991.901 515.116 997.232 514.195 1003.29 514.195C1007.5 514.195 1011.53 514.688 1015.38 515.675C1019.26 516.663 1022.7 518.193 1025.7 520.266C1028.72 522.339 1031.11 525.005 1032.85 528.262C1034.6 531.487 1035.47 535.354 1035.47 539.862V591H1015.53V580.486H1014.94C1013.72 582.855 1012.09 584.945 1010.05 586.755C1008.01 588.532 1005.56 589.931 1002.69 590.951C999.832 591.938 996.525 592.431 992.773 592.431ZM998.795 577.919C1001.89 577.919 1004.62 577.311 1006.99 576.093C1009.36 574.843 1011.22 573.164 1012.57 571.058C1013.92 568.952 1014.59 566.566 1014.59 563.901V555.855C1013.93 556.283 1013.03 556.678 1011.88 557.04C1010.76 557.369 1009.49 557.681 1008.07 557.978C1006.66 558.241 1005.24 558.488 1003.83 558.718C1002.41 558.915 1001.13 559.096 999.98 559.261C997.512 559.623 995.356 560.199 993.513 560.989C991.671 561.778 990.239 562.848 989.219 564.197C988.199 565.513 987.689 567.159 987.689 569.133C987.689 571.996 988.725 574.184 990.799 575.698C992.905 577.179 995.57 577.919 998.795 577.919ZM1092.11 515.182V530.977H1046.45V515.182H1092.11ZM1056.82 497.017H1077.85V567.702C1077.85 569.643 1078.14 571.157 1078.73 572.243C1079.33 573.296 1080.15 574.036 1081.2 574.464C1082.29 574.892 1083.54 575.106 1084.95 575.106C1085.94 575.106 1086.93 575.024 1087.92 574.859C1088.9 574.662 1089.66 574.513 1090.19 574.415L1093.49 590.062C1092.44 590.391 1090.96 590.77 1089.05 591.197C1087.14 591.658 1084.82 591.938 1082.09 592.037C1077.02 592.234 1072.58 591.559 1068.76 590.013C1064.98 588.466 1062.03 586.064 1059.93 582.806C1057.82 579.548 1056.79 575.435 1056.82 570.466V497.017ZM1167.94 536.802L1148.69 537.987C1148.36 536.341 1147.65 534.86 1146.57 533.544C1145.48 532.195 1144.05 531.125 1142.27 530.336C1140.53 529.513 1138.44 529.102 1136.01 529.102C1132.75 529.102 1130 529.793 1127.76 531.175C1125.52 532.524 1124.41 534.334 1124.41 536.604C1124.41 538.414 1125.13 539.944 1126.58 541.195C1128.03 542.445 1130.51 543.449 1134.03 544.206L1147.75 546.97C1155.12 548.484 1160.62 550.919 1164.24 554.276C1167.86 557.632 1169.67 562.042 1169.67 567.504C1169.67 572.473 1168.21 576.833 1165.28 580.585C1162.38 584.336 1158.4 587.265 1153.33 589.371C1148.3 591.444 1142.49 592.481 1135.91 592.481C1125.87 592.481 1117.87 590.391 1111.92 586.212C1105.99 582 1102.52 576.274 1101.5 569.034L1122.18 567.949C1122.81 571.009 1124.32 573.345 1126.73 574.958C1129.13 576.537 1132.2 577.327 1135.96 577.327C1139.64 577.327 1142.6 576.62 1144.84 575.205C1147.11 573.757 1148.26 571.897 1148.3 569.627C1148.26 567.718 1147.46 566.155 1145.88 564.938C1144.3 563.687 1141.86 562.733 1138.57 562.075L1125.44 559.458C1118.04 557.978 1112.53 555.411 1108.91 551.758C1105.32 548.105 1103.53 543.449 1103.53 537.789C1103.53 532.919 1104.84 528.723 1107.48 525.202C1110.14 521.681 1113.88 518.966 1118.68 517.058C1123.52 515.149 1129.18 514.195 1135.66 514.195C1145.24 514.195 1152.77 516.218 1158.27 520.266C1163.8 524.314 1167.02 529.826 1167.94 536.802ZM1200.73 591H1177.83L1212.72 489.909H1240.27L1275.12 591H1252.21L1226.89 513.01H1226.1L1200.73 591ZM1199.3 551.265H1253.4V567.949H1199.3V551.265ZM1286.89 619.432V515.182H1307.62V527.917H1308.56C1309.48 525.877 1310.81 523.804 1312.56 521.697C1314.33 519.558 1316.64 517.781 1319.47 516.366C1322.33 514.919 1325.88 514.195 1330.13 514.195C1335.66 514.195 1340.76 515.643 1345.43 518.538C1350.1 521.401 1353.84 525.729 1356.64 531.52C1359.43 537.279 1360.83 544.502 1360.83 553.19C1360.83 561.647 1359.47 568.788 1356.73 574.612C1354.04 580.404 1350.35 584.797 1345.68 587.792C1341.04 590.753 1335.84 592.234 1330.08 592.234C1326 592.234 1322.53 591.559 1319.66 590.21C1316.83 588.861 1314.51 587.166 1312.71 585.126C1310.9 583.053 1309.51 580.963 1308.56 578.857H1307.92V619.432H1286.89ZM1307.47 553.091C1307.47 557.599 1308.1 561.532 1309.35 564.888C1310.6 568.245 1312.41 570.861 1314.78 572.737C1317.15 574.579 1320.03 575.501 1323.42 575.501C1326.84 575.501 1329.73 574.563 1332.1 572.687C1334.47 570.779 1336.27 568.146 1337.48 564.789C1338.73 561.4 1339.36 557.5 1339.36 553.091C1339.36 548.714 1338.75 544.864 1337.53 541.54C1336.32 538.217 1334.52 535.617 1332.15 533.741C1329.78 531.866 1326.87 530.928 1323.42 530.928C1319.99 530.928 1317.1 531.833 1314.73 533.643C1312.39 535.453 1310.6 538.019 1309.35 541.343C1308.1 544.667 1307.47 548.583 1307.47 553.091ZM1374.85 619.432V515.182H1395.58V527.917H1396.52C1397.44 525.877 1398.77 523.804 1400.52 521.697C1402.29 519.558 1404.6 517.781 1407.43 516.366C1410.29 514.919 1413.85 514.195 1418.09 514.195C1423.62 514.195 1428.72 515.643 1433.39 518.538C1438.07 521.401 1441.8 525.729 1444.6 531.52C1447.39 537.279 1448.79 544.502 1448.79 553.19C1448.79 561.647 1447.43 568.788 1444.7 574.612C1442 580.404 1438.31 584.797 1433.64 587.792C1429 590.753 1423.8 592.234 1418.04 592.234C1413.96 592.234 1410.49 591.559 1407.63 590.21C1404.8 588.861 1402.48 587.166 1400.67 585.126C1398.86 583.053 1397.47 580.963 1396.52 578.857H1395.88V619.432H1374.85ZM1395.43 553.091C1395.43 557.599 1396.06 561.532 1397.31 564.888C1398.56 568.245 1400.37 570.861 1402.74 572.737C1405.11 574.579 1407.99 575.501 1411.38 575.501C1414.8 575.501 1417.7 574.563 1420.06 572.687C1422.43 570.779 1424.23 568.146 1425.45 564.789C1426.7 561.4 1427.32 557.5 1427.32 553.091C1427.32 548.714 1426.71 544.864 1425.49 541.54C1424.28 538.217 1422.48 535.617 1420.11 533.741C1417.74 531.866 1414.83 530.928 1411.38 530.928C1407.95 530.928 1405.06 531.833 1402.69 533.643C1400.35 535.453 1398.56 538.019 1397.31 541.343C1396.06 544.667 1395.43 548.583 1395.43 553.091Z" fill="white"/>
</svg>
